Coordinates
version=1
nRows=54
nColumns=12
inDegrees=yes

Units are S.I. units (second, meters, Newtons, ...)
Angles are in degrees

endheader
time	SC_y	SC_z	SC_x	AC_y	AC_z	AC_x	GH_y	GH_z	GH_yy	EL_x	PS_y
       0.0              -42.62          32.47          9.929          54.16         -11.27          7.497          35.93          3.617          46.57          21.58          24.04
   0.03044              -42.61          32.47           9.93          54.16         -11.27          7.493          35.92          3.627          46.54          21.58          24.05
   0.06089              -42.61          32.46          9.931          54.15         -11.26          7.489          35.91          3.637          46.51          21.59          24.07
   0.09133              -42.61          32.46          9.932          54.15         -11.26          7.484          35.89          3.648          46.48          21.59          24.08
    0.1218               -42.6          32.46          9.932          54.15         -11.26           7.48          35.88           3.66          46.44           21.6          24.09
    0.1522               -42.6          32.45          9.933          54.15         -11.25          7.475          35.86          3.673          46.41           21.6          24.11
    0.1827              -42.59          32.45          9.935          54.14         -11.25          7.469          35.84          3.686          46.37          21.61          24.12
    0.2131              -42.59          32.44          9.936          54.14         -11.25          7.464          35.83          3.701          46.33          21.62          24.14
    0.2436              -42.58          32.44          9.937          54.14         -11.24          7.458          35.81          3.716          46.28          21.63          24.16
     0.274              -42.58          32.43          9.938          54.13         -11.24          7.451          35.78          3.733          46.23          21.63          24.18
    0.3044              -42.57          32.43           9.94          54.13         -11.23          7.444          35.76          3.751          46.18          21.64           24.2
    0.3349              -42.57          32.42          9.941          54.12         -11.23          7.437          35.74           3.77          46.13          21.65          24.22
    0.3653              -42.56          32.41          9.943          54.12         -11.22          7.429          35.71           3.79          46.07          21.66          24.25
    0.3958              -42.55          32.41          9.945          54.11         -11.22           7.42          35.68          3.813           46.0          21.67          24.27
    0.4262              -42.54           32.4          9.947          54.11         -11.21           7.41          35.65          3.837          45.93          21.68           24.3
    0.4567              -42.53          32.39          9.949           54.1         -11.21            7.4          35.62          3.863          45.86          21.69          24.33
    0.4871              -42.53          32.38          9.951           54.1          -11.2          7.389          35.58          3.892          45.77          21.71          24.37
    0.5175              -42.51          32.37          9.954          54.09         -11.19          7.377          35.54          3.923          45.68          21.72           24.4
     0.548               -42.5          32.36          9.956          54.08         -11.18          7.364           35.5          3.957          45.58          21.74          24.44
    0.5784              -42.49          32.35          9.959          54.07         -11.17          7.349          35.45          3.994          45.48          21.76          24.49
    0.6089              -42.48          32.33          9.963          54.07         -11.16          7.333           35.4          4.034          45.36          21.78          24.54
    0.6393              -42.46          32.32          9.966          54.06         -11.15          7.316          35.34          4.079          45.23           21.8          24.59
    0.6698              -42.45           32.3           9.97          54.05         -11.14          7.296          35.28          4.129          45.08          21.82          24.65
    0.7002              -42.43          32.28          9.975          54.03         -11.13          7.275          35.21          4.184          44.92          21.85          24.71
    0.7307              -42.41          32.26           9.98          54.02         -11.11          7.251          35.13          4.245          44.75          21.87          24.79
    0.7611              -42.38          32.24          9.985          54.01         -11.09          7.224          35.05          4.313          44.55          21.91          24.87
    0.7915              -42.36          32.22          9.991          53.99         -11.07          7.194          34.95          4.389          44.33          21.94          24.96
     0.822              -42.33          32.19          9.998          53.97         -11.05          7.161          34.84          4.475          44.08          21.98          25.06
    0.8524               -42.3          32.16          10.01          53.95         -11.03          7.123          34.72          4.572           43.8          22.03          25.17
    0.8829              -42.26          32.12          10.02          53.92          -11.0          7.079          34.58          4.682          43.48          22.08           25.3
    0.9133              -42.22          32.08          10.03           53.9         -10.97           7.03          34.42          4.808          43.11          22.14          25.45
    0.9438              -42.17          32.03          10.04          53.87         -10.93          6.974          34.23          4.952          42.69          22.21          25.62
    0.9742              -42.12          31.98          10.05          53.83         -10.89          6.909          34.02          5.118          42.21          22.28          25.82
     1.005              -42.05          31.92          10.07          53.79         -10.84          6.833          33.78          5.312          41.65          22.38          26.05
     1.035              -41.98          31.84          10.08          53.74         -10.78          6.744          33.49          5.538          40.99          22.48          26.32
     1.066              -41.89          31.75          10.11          53.68         -10.72           6.64          33.15          5.805          40.22          22.61          26.64
     1.096              -41.78          31.65          10.13          53.61         -10.64          6.515          32.75          6.122           39.3          22.76          27.01
     1.126              -41.66          31.53          10.16          53.53         -10.54          6.367          32.26          6.502          38.19          22.94          27.46
     1.157               -41.5          31.38           10.2          53.43         -10.42          6.187          31.68          6.962          36.86          23.15          28.01
     1.187              -41.32          31.19          10.24           53.3         -10.28          5.967          30.96          7.523          35.23          23.42          28.67
     1.218              -41.08          30.97           10.3          53.15         -10.11          5.695          30.08          8.216          33.21          23.74          29.49
     1.248               -40.8          30.68          10.37          52.96          -9.89          5.356          28.98          9.081           30.7          24.15          30.52
     1.279              -40.43          30.33          10.46          52.72         -9.616           4.93           27.6          10.17          27.54          24.66          31.81
     1.309              -39.97          29.87          10.57          52.42         -9.267          4.388          25.83          11.55          23.52          25.31          33.45
      1.34              -39.38           29.3          10.71          52.03          -8.82          3.694          23.58          13.33          18.38          26.14          35.55
      1.37              -38.62          28.55           10.9          51.54         -8.246          2.803          20.69           15.6          11.77          27.21          38.25
       1.4              -37.66           27.6          11.13           50.9         -7.514          1.665          16.99           18.5          3.338          28.58          41.69
     1.431              -36.44          26.41          11.43           50.1         -6.593         0.2351          12.35          22.16         -7.267           30.3          46.02
     1.461              -34.96          24.95          11.79          49.13         -5.471         -1.508          6.686          26.61         -20.19          32.39          51.29
     1.492              -33.24          23.27           12.2           48.0          -4.17         -3.529         0.1237          31.76         -35.17          34.81          57.41
     1.522              -31.38          21.44          12.66          46.78         -2.761         -5.716         -6.982          37.35         -51.39          37.44          64.03
     1.553              -29.51          19.61          13.11          45.56         -1.353         -7.904         -14.09          42.94         -67.61          40.07          70.65
     1.583               -27.8          17.93          13.52          44.43       -0.05163         -9.925         -20.65          48.09         -82.59          42.49          76.77
     1.614              -26.31          16.47          13.88          43.46          1.071         -11.67         -26.31          52.54         -95.52          44.58          82.04
